<svg width="20" height="20" viewBox="0 0 20 20" fill="none" xmlns="http://www.w3.org/2000/svg">
<path d="M5.56314 13.1286C6.17119 13.6395 6.90635 13.908 7.63089 14.0575C7.58409 14.1724 7.54404 14.2956 7.51189 14.4271C7.32475 14.4835 7.09949 14.5256 6.87382 14.506C6.57248 14.4799 6.23527 14.3438 5.95829 13.8599L5.95778 13.859L5.95069 13.8467C5.94503 13.837 5.93749 13.8245 5.92808 13.8093C5.90928 13.7792 5.8828 13.7386 5.84867 13.691C5.78086 13.5965 5.68031 13.4704 5.54674 13.3414C5.2832 13.0868 4.85959 12.7915 4.28426 12.7512L4.27192 12.7503L4.25955 12.7501L4.24935 13.25C4.25955 12.7501 4.2594 12.7501 4.25924 12.7501L4.25891 12.7501L4.25819 12.75L4.25651 12.75L4.25221 12.75L4.24001 12.7499C4.23038 12.7499 4.21764 12.75 4.20247 12.7504C4.17257 12.7512 4.13097 12.7532 4.08354 12.7579C4.00867 12.7655 3.8432 12.7862 3.69405 12.8685C3.61447 12.9125 3.49125 13.0005 3.41963 13.1609C3.34061 13.338 3.36298 13.5146 3.41972 13.6487C3.47106 13.77 3.5526 13.8658 3.62674 13.9381C3.70461 14.0141 3.79995 14.0885 3.90949 14.1632L3.94117 14.1848L3.96679 14.197C3.97143 14.1997 3.9818 14.206 3.99694 14.2165C4.0298 14.2392 4.08552 14.282 4.15422 14.3515C4.28899 14.4878 4.4804 14.7335 4.64601 15.1462C4.64749 15.1505 4.64914 15.1553 4.65097 15.1604C4.65786 15.1798 4.66738 15.2051 4.67989 15.2352C4.70485 15.2953 4.74209 15.3756 4.79481 15.4679C4.89987 15.6517 5.06962 15.8884 5.33097 16.1055C5.78393 16.4816 6.45826 16.7545 7.41602 16.673V17.4052C4.36126 16.3314 2.16602 13.4208 2.16602 9.99996C2.16602 7.92243 2.99131 5.92999 4.46035 4.46096C5.18774 3.73356 6.05128 3.15656 7.00166 2.7629C7.95205 2.36924 8.97066 2.16663 9.99935 2.16663C11.028 2.16663 12.0467 2.36924 12.997 2.7629C13.9474 3.15656 14.811 3.73356 15.5384 4.46096C16.2657 5.18835 16.8427 6.05189 17.2364 7.00227C17.6301 7.95266 17.8327 8.97127 17.8327 9.99996C17.8327 13.4235 15.642 16.3284 12.5827 17.4078V15.2166C12.5827 14.7646 12.5009 14.3727 12.3643 14.048C13.0874 13.8997 13.8211 13.6346 14.4285 13.1291C15.2889 12.4132 15.816 11.2854 15.816 9.58329C15.816 8.64446 15.5254 7.85718 15.0188 7.21358C15.1383 6.7604 15.2429 5.93156 14.8374 4.93631L14.7494 4.72032L14.5274 4.64895L14.3743 5.12496C14.5274 4.64895 14.5269 4.64879 14.5264 4.64864L14.5254 4.64832L14.5234 4.64769L14.5192 4.64639L14.5099 4.64364C14.5033 4.64176 14.496 4.63978 14.4879 4.63776C14.4718 4.63371 14.4528 4.62949 14.4308 4.62548C14.3867 4.61746 14.3311 4.61036 14.2638 4.60716C14.1289 4.60075 13.9493 4.61016 13.7231 4.6574C13.3067 4.74441 12.7361 4.95883 11.9937 5.43492C11.352 5.27761 10.6708 5.19996 9.99935 5.19996C9.32792 5.19996 8.64667 5.27761 8.00498 5.43492C7.26256 4.95883 6.69204 4.74441 6.27556 4.6574C6.04942 4.61016 5.86984 4.60075 5.73488 4.60716C5.66756 4.61036 5.61199 4.61746 5.56793 4.62548C5.54594 4.62949 5.5269 4.63371 5.51078 4.63776C5.50273 4.63978 5.49542 4.64176 5.48885 4.64364L5.47954 4.64639L5.4753 4.64769L5.47329 4.64832L5.47231 4.64864C5.47182 4.64879 5.47134 4.64895 5.62435 5.12496L5.47134 4.64895L5.2493 4.72032L5.1613 4.93631C4.75583 5.93155 4.86035 6.7604 4.97993 7.21358C4.47326 7.85718 4.18268 8.64446 4.18268 9.58329C4.18268 11.2809 4.70746 12.4098 5.56314 13.1286ZM4.14197 13.7596C4.14195 13.7595 4.14253 13.7594 4.14374 13.7591L4.14197 13.7596ZM4.37361 13.2644C5.12652 13.3877 5.52435 14.1083 5.52435 14.1083L4.37361 13.2644ZM4.31253 13.2091C4.31256 13.2091 4.31307 13.2097 4.31397 13.2109C4.31295 13.2097 4.3125 13.2091 4.31253 13.2091Z" fill="#121619" stroke="#121619"/>
</svg>
