<svg width="117" height="17" viewBox="0 0 117 17" fill="none" xmlns="http://www.w3.org/2000/svg">
<g clip-path="url(#clip0_511_2306)">
<path d="M82.1794 15.3171H76.8002V1.77694H82.1794C84.9718 1.77694 87.3349 4.79752 87.3349 8.23795C87.3349 9.90569 86.9741 15.3171 82.1794 15.3171ZM82.1794 0.0858812H75.2128C75.2128 0.0858812 75.0938 0.0858812 75.0938 0.210281V16.8138C75.0938 16.9498 75.1515 16.9809 75.2777 16.9809H82.1794C86.3933 16.9809 89.0125 13.6455 89.0125 8.23795C89.0125 3.82176 85.9459 0.0742188 82.1794 0.0742188" fill="#F0F0F0"/>
<path d="M7.96235 7.65482H4.75504C2.88261 7.65482 1.68483 5.90545 1.68483 4.69644C1.68483 3.48743 2.63728 1.76916 4.75504 1.76916H11.6423C11.6622 1.7702 11.6821 1.76701 11.7008 1.75976C11.7196 1.7525 11.7368 1.74134 11.7516 1.72689C11.7663 1.71245 11.7783 1.69501 11.7868 1.67558C11.7952 1.65615 11.8001 1.63511 11.801 1.61366V0.221937C11.7991 0.178283 11.7815 0.137156 11.7518 0.107365C11.7221 0.0775736 11.6828 0.0614865 11.6423 0.0625495H4.75504C1.77863 0.066437 0 2.42226 0 4.69644C0 6.8851 1.9518 9.33033 4.75504 9.33033H7.96235C8.7025 9.33502 9.41313 9.64367 9.94941 10.1934C10.4857 10.743 10.8073 11.4924 10.8486 12.2887C10.8527 12.6949 10.7803 13.0978 10.6359 13.4731C10.4914 13.8483 10.2778 14.1881 10.0081 14.4719C9.73829 14.7557 9.41792 14.9776 9.0663 15.1242C8.71469 15.2708 8.33914 15.3391 7.96235 15.3248H0.555597C0.535873 15.3238 0.516156 15.327 0.497606 15.3343C0.479057 15.3416 0.462052 15.3528 0.447593 15.3673C0.433135 15.3818 0.421516 15.3993 0.413421 15.4187C0.405327 15.4381 0.40092 15.4591 0.400463 15.4803V16.8332C0.40092 16.8545 0.405327 16.8754 0.413421 16.8948C0.421516 16.9142 0.433135 16.9317 0.447593 16.9462C0.462052 16.9607 0.479057 16.9719 0.497606 16.9792C0.516156 16.9865 0.535873 16.9897 0.555597 16.9887H7.96235C10.9388 16.9887 12.5478 14.5279 12.5478 12.2809C12.5112 11.136 12.0848 10.0456 11.35 9.21759C10.9158 8.7202 10.3905 8.32523 9.80742 8.05758C9.22434 7.78994 8.5961 7.65545 7.96235 7.6626" fill="#F0F0F0"/>
<path d="M42.4448 0.0740357C42.4431 0.0630541 42.4378 0.0530986 42.4298 0.0459687C42.4219 0.0388389 42.4118 0.0350052 42.4015 0.0351608H39.923C39.9126 0.0350052 39.9026 0.0388389 39.8947 0.0459687C39.8867 0.0530986 39.8814 0.0630541 39.8797 0.0740357L35.3555 16.9185C35.3555 16.9185 35.3339 16.9807 35.3916 16.9807H37.0332C37.0728 16.9807 37.0873 16.9302 37.0873 16.9302L41.1821 1.76898L45.2553 16.9496C45.2589 16.9624 45.266 16.9737 45.2756 16.982C45.2853 16.9903 45.297 16.9953 45.3094 16.9963H46.9473C46.9544 16.9967 46.9616 16.9953 46.968 16.992C46.9745 16.9888 46.9802 16.9839 46.9844 16.9777C46.9887 16.9715 46.9915 16.9643 46.9926 16.9567C46.9937 16.9491 46.993 16.9413 46.9906 16.9341L42.4448 0.0740357Z" fill="#F0F0F0"/>
<path d="M66.588 0.027531H65.1809C65.1607 0.0264879 65.1405 0.0298111 65.1216 0.037305C65.1026 0.0447989 65.0852 0.0563118 65.0704 0.0711654C65.0556 0.0860189 65.0437 0.103913 65.0354 0.123792C65.0271 0.143672 65.0226 0.165136 65.0222 0.186918V0.229681V14.1041L56.7243 0.109168C56.7044 0.0767499 56.6753 0.0521864 56.6413 0.0391935H54.0221C54.0033 0.0420831 53.9862 0.0524774 53.9742 0.0683171C53.9621 0.0841568 53.9561 0.104286 53.9572 0.124718V16.8409C53.9581 16.8624 53.9629 16.8834 53.9714 16.9029C53.9799 16.9223 53.9918 16.9397 54.0066 16.9542C54.0213 16.9686 54.0386 16.9798 54.0573 16.987C54.0761 16.9943 54.096 16.9975 54.1159 16.9964H55.5013C55.5212 16.9975 55.5411 16.9943 55.5598 16.987C55.5786 16.9798 55.5958 16.9686 55.6106 16.9542C55.6253 16.9397 55.6373 16.9223 55.6458 16.9029C55.6543 16.8834 55.6591 16.8624 55.66 16.8409V1.60196L64.7227 16.977C64.7358 16.9806 64.7494 16.9806 64.7624 16.977H66.6493C66.7503 16.977 66.7431 16.8954 66.7431 16.8954V0.186918C66.7412 0.143265 66.7236 0.102138 66.6939 0.0723465C66.6642 0.0425551 66.6249 0.026468 66.5844 0.027531" fill="#F0F0F0"/>
<path d="M97.3573 0.186943C97.3564 0.165494 97.3515 0.144452 97.343 0.125022C97.3346 0.105592 97.3226 0.0881553 97.3079 0.0737112C97.2931 0.0592671 97.2759 0.0480989 97.2571 0.040846C97.2384 0.0335931 97.2185 0.0303981 97.1986 0.0314437H95.8384C95.8185 0.0303981 95.7986 0.0335931 95.7799 0.040846C95.7611 0.0480989 95.7439 0.0592671 95.7291 0.0737112C95.7144 0.0881553 95.7024 0.105592 95.6939 0.125022C95.6855 0.144452 95.6806 0.165494 95.6797 0.186943V0.389093V16.7166V16.8721C95.6801 16.8938 95.6846 16.9153 95.6929 16.9352C95.7012 16.9551 95.7131 16.973 95.7279 16.9878C95.7427 17.0027 95.7601 17.0142 95.7791 17.0217C95.798 17.0292 95.8182 17.0325 95.8384 17.0314H97.1986C97.2391 17.0325 97.2784 17.0164 97.3081 16.9866C97.3378 16.9568 97.3554 16.9157 97.3573 16.8721V0.186943Z" fill="#F0F0F0"/>
<path d="M116.84 0.000193722H103.924C103.904 -0.000851946 103.885 0.00234313 103.866 0.00959601C103.847 0.0168489 103.83 0.0280171 103.815 0.0424612C103.8 0.0569053 103.788 0.0743416 103.78 0.0937716C103.771 0.113202 103.767 0.134244 103.766 0.155693V1.50465C103.767 1.5261 103.771 1.54714 103.78 1.56657C103.788 1.586 103.8 1.60344 103.815 1.61789C103.83 1.63233 103.847 1.6435 103.866 1.65075C103.885 1.658 103.904 1.6612 103.924 1.66015H109.545V16.8214C109.546 16.8432 109.55 16.8646 109.559 16.8845C109.567 16.9044 109.579 16.9223 109.593 16.9371C109.608 16.952 109.626 16.9635 109.645 16.971C109.664 16.9785 109.684 16.9818 109.704 16.9808H111.064C111.105 16.9818 111.144 16.9657 111.174 16.9359C111.203 16.9062 111.221 16.865 111.223 16.8214V1.66015H116.84C116.86 1.6612 116.88 1.658 116.899 1.65075C116.918 1.6435 116.935 1.63233 116.949 1.61789C116.964 1.60344 116.976 1.586 116.985 1.56657C116.993 1.54714 116.998 1.5261 116.999 1.50465V0.155693C116.998 0.134244 116.993 0.113202 116.985 0.0937716C116.976 0.0743416 116.964 0.0569053 116.949 0.0424612C116.935 0.0280171 116.918 0.0168489 116.899 0.00959601C116.88 0.00234313 116.86 -0.000851946 116.84 0.000193722Z" fill="#F0F0F0"/>
<path d="M29.947 15.329H23.5071C21.2126 15.329 18.8964 13.1909 18.8964 8.57256C18.8964 3.95422 21.6491 1.7539 23.5071 1.7539H29.8568C29.8767 1.75495 29.8966 1.75175 29.9153 1.7445C29.9341 1.73725 29.9513 1.72608 29.9661 1.71164C29.9808 1.69719 29.9928 1.67975 30.0013 1.66032C30.0097 1.64089 30.0146 1.61985 30.0155 1.5984V0.249443C30.0146 0.227994 30.0097 0.206952 30.0013 0.187522C29.9928 0.168092 29.9808 0.150655 29.9661 0.136211C29.9513 0.121767 29.9341 0.110599 29.9153 0.103346C29.8966 0.0960931 29.8767 0.0928981 29.8568 0.0939437H23.5071C20.8951 0.0900562 17.2188 2.72189 17.2188 8.57256C17.2188 14.3416 20.3755 16.9929 23.5071 16.9929H29.947C29.9669 16.9939 29.9868 16.9907 30.0055 16.9835C30.0243 16.9762 30.0415 16.965 30.0563 16.9506C30.071 16.9362 30.083 16.9187 30.0915 16.8993C30.0999 16.8799 30.1048 16.8588 30.1057 16.8374V15.4845C30.1048 15.4631 30.0999 15.442 30.0915 15.4226C30.083 15.4032 30.071 15.3857 30.0563 15.3713C30.0415 15.3568 30.0243 15.3457 30.0055 15.3384C29.9868 15.3312 29.9669 15.328 29.947 15.329Z" fill="#F0F0F0"/>
</g>
<defs>
<clipPath id="clip0_511_2306">
<rect width="117" height="17" fill="white"/>
</clipPath>
</defs>
</svg>
