<svg width="40" height="40" viewBox="0 0 40 40" fill="none" xmlns="http://www.w3.org/2000/svg">
<path d="M8.99854 4.99365L4.99854 4.99365L4.99853 8.99365" stroke="black" stroke-width="2"/>
<path d="M31 4.99365L35 4.99365L35 8.99365" stroke="black" stroke-width="2"/>
<path d="M8.99854 35L4.99854 35L4.99853 31" stroke="black" stroke-width="2"/>
<path d="M31 35L35 35L35 31" stroke="black" stroke-width="2"/>
<path d="M8.99854 8.99365L8.99854 18.9917" stroke="black" stroke-width="2" stroke-linecap="round"/>
<path d="M12.9985 8.99365L12.9985 18.9937" stroke="black" stroke-width="2" stroke-linecap="round"/>
<path d="M17 8.99365L17 18.9937" stroke="black" stroke-width="2" stroke-linecap="round"/>
<path d="M21 8.99365L21 18.9937" stroke="black" stroke-width="2" stroke-linecap="round"/>
<path d="M31 18.9937L31 8.99365L25 8.99365L25 14.0159" stroke="black" stroke-width="2" stroke-linecap="round" stroke-linejoin="round"/>
<path d="M30.9712 27L30.9712 31L28.971 31" stroke="black" stroke-width="2" stroke-linecap="round" stroke-linejoin="round"/>
<path d="M12.999 26.0068L12.999 28.0068" stroke="black" stroke-width="2"/>
<rect x="8.99854" y="23.0068" width="8.00146" height="8" stroke="black" stroke-width="2" stroke-linejoin="round"/>
<path d="M28.0004 13.001V20.0209H24.9916V23.0551H21.0269V31.0084H24.9916V27.0197H28.0004V23.0551H31.0373" stroke="black" stroke-width="2" stroke-linecap="round" stroke-linejoin="round"/>
</svg>
