<svg width="40" height="40" viewBox="0 0 40 40" fill="none" xmlns="http://www.w3.org/2000/svg">
<path d="M4.99854 8.00085L4.99854 19" stroke="black" stroke-width="2" stroke-linecap="round"/>
<path d="M8.99854 8.00085L8.99854 16.4618" stroke="black" stroke-width="2" stroke-linecap="round"/>
<path d="M13 8.00085L13 16.4618" stroke="black" stroke-width="2" stroke-linecap="round"/>
<path d="M17 8.00085L17 19" stroke="black" stroke-width="2" stroke-linecap="round"/>
<path d="M4.99854 24.0037L4.99854 35.0029" stroke="black" stroke-width="2" stroke-linecap="round"/>
<path d="M8.99854 24.0037L8.99854 32.4646" stroke="black" stroke-width="2" stroke-linecap="round"/>
<path d="M13 24.0037L13 32.4646" stroke="black" stroke-width="2" stroke-linecap="round"/>
<path d="M17 24.0037L17 35.0029" stroke="black" stroke-width="2" stroke-linecap="round"/>
<path d="M22.9985 24.0037L22.9985 35.0029" stroke="black" stroke-width="2" stroke-linecap="round"/>
<path d="M26.9985 24.0037L26.9985 32.4646" stroke="black" stroke-width="2" stroke-linecap="round"/>
<path d="M31 24.0037L31 32.4646" stroke="black" stroke-width="2" stroke-linecap="round"/>
<path d="M35 24.0037L35 35.0029" stroke="black" stroke-width="2" stroke-linecap="round"/>
<path d="M25 5L21 5L21 9" stroke="black" stroke-width="2"/>
<path d="M31 5L35 5L35 9" stroke="black" stroke-width="2"/>
<path d="M25 19L21 19L21 15" stroke="black" stroke-width="2"/>
<path d="M31.041 19L35.041 19L35.041 15" stroke="black" stroke-width="2"/>
<rect x="26" y="10" width="4" height="4" rx="2" fill="black"/>
</svg>
