<svg xmlns="http://www.w3.org/2000/svg" width="21" height="20" viewBox="0 0 21 20" fill="none"><path d="M18.3145 19.5499H15.0745L15.3045 16.8199H13.7145L13.4845 19.5499H6.78452L6.55452 16.8199H4.96452L5.19452 19.5499H1.95452L0.134521 7.72995L4.68452 0.449951H15.5845L20.1345 7.72995L18.3145 19.5499ZM14.6845 4.08995H11.7545L11.9545 5.44995H8.31452L8.51452 4.08995H5.58452L3.77452 7.72995L4.68452 14.9999H15.5845L16.4945 7.72995L14.6845 4.08995ZM13.1345 12.5899C12.8845 12.5899 12.6845 11.8299 12.6845 10.9C12.6845 9.96995 12.8845 9.19995 13.1345 9.19995C13.3845 9.19995 13.5945 9.95995 13.5945 10.9C13.5945 11.8399 13.3945 12.5899 13.1345 12.5899ZM7.40452 12.7299C7.13452 12.7299 6.89452 12 6.89452 11C6.89452 9.99995 7.09452 9.30995 7.35452 9.30995C7.61452 9.30995 7.80452 10.0599 7.80452 11C7.80452 11.9399 7.60452 12.7299 7.35452 12.7299H7.40452Z" fill="#B8C2CC"></path></svg>