<svg fill="none" height="12" viewBox="0 0 32 12" width="32" xmlns="http://www.w3.org/2000/svg"><g fill="#b8c2cc"><path d="m11.6073 120.333c-3.22422 0-5.96484-1.074-8.22183-3.223-2.25698-2.204-3.38547-4.821-3.38547-7.851 0-3.086 1.12849-5.73 3.38547-7.934 2.25699-2.2043 4.99761-3.3062 8.22183-3.3062 3.278 0 6.0455 1.1019 8.3025 3.3062 2.3107 2.204 3.4661 4.848 3.4661 7.934 0 3.03-1.1554 5.647-3.4661 7.851-2.257 2.149-5.0245 3.223-8.3025 3.223z"/><path d="m140.5 118.515h-20.957l-55.2158-87.1093c-1.3972-2.2039-2.5525-4.4905-3.4661-6.8597h-.4836c.4299 2.5345.6449 7.9616.6449 16.2814v77.6876h-18.5395v-118.515h22.328l53.3611 85.0433c2.257 3.5262 3.708 5.9505 4.353 7.2729h.323c-.538-3.1406-.807-8.4575-.807-15.9508v-76.3654h18.459z"/><path d="m230.783 118.515h-64.888v-118.515h62.309v16.6946h-43.125v33.5545h39.739v16.6119h-39.739v35.042h45.704z"/><path d="m323 16.6946h-33.21v101.8204h-19.184v-101.8204h-33.13v-16.6946h85.524z"/></g></svg>