<svg width="40" height="40" viewBox="0 0 40 40" fill="none" xmlns="http://www.w3.org/2000/svg">
<path d="M8.99854 4.99365L4.99854 4.99365L4.99853 8.99365" stroke="black" stroke-width="2"/>
<path d="M31 4.99365L35 4.99365L35 8.99365" stroke="black" stroke-width="2"/>
<path d="M8.99854 35L4.99854 35L4.99853 31" stroke="black" stroke-width="2"/>
<path d="M31 35L35 35L35 31" stroke="black" stroke-width="2"/>
<rect x="8" y="12" width="24" height="16" stroke="black" stroke-width="2" stroke-linejoin="round"/>
<path d="M16 20.0082C17.1046 20.0082 18 19.1127 18 18.0082C18 16.9036 17.1046 16.0082 16 16.0082C14.8954 16.0082 14 16.9036 14 18.0082C14 19.1127 14.8954 20.0082 16 20.0082Z" stroke="black" stroke-width="2"/>
<path d="M20 27.0221C20 25.9612 19.5786 24.9438 18.8284 24.1937C18.0783 23.4435 17.0609 23.0221 16 23.0221C14.9391 23.0221 13.9217 23.4435 13.1716 24.1937C12.4214 24.9438 12 25.9612 12 27.0221" stroke="black" stroke-width="2"/>
<path d="M21.9585 16.0082L27.9585 16.0082" stroke="black" stroke-width="2" stroke-linecap="square"/>
<path d="M21.9585 20L25.9585 20" stroke="black" stroke-width="2" stroke-linecap="square"/>
</svg>
