<svg xmlns="http://www.w3.org/2000/svg" width="17" height="20" viewBox="0 0 17 20" fill="none"><path d="M16.1745 14.811C15.8875 15.475 15.5475 16.086 15.1535 16.648C14.6165 17.415 14.1755 17.945 13.8375 18.24C13.3125 18.722 12.7485 18.97 12.1455 18.984C11.7135 18.984 11.1915 18.861 10.5835 18.611C9.97348 18.362 9.41348 18.24 8.90048 18.24C8.36348 18.24 7.78748 18.362 7.17048 18.611C6.55448 18.861 6.05648 18.992 5.67548 19.004C5.09848 19.029 4.52148 18.775 3.94648 18.24C3.57948 17.92 3.12048 17.37 2.56948 16.592C1.97948 15.763 1.49448 14.798 1.11448 13.701C0.707479 12.514 0.503479 11.366 0.503479 10.254C0.503479 8.98102 0.778479 7.88202 1.32948 6.96202C1.76348 6.22202 2.33948 5.63902 3.05948 5.21102C3.78048 4.78202 4.56048 4.56302 5.39948 4.54902C5.85948 4.54902 6.46248 4.69102 7.20948 4.97102C7.95648 5.25102 8.43648 5.39302 8.64548 5.39302C8.80348 5.39302 9.33448 5.22602 10.2385 4.89502C11.0915 4.58802 11.8115 4.46102 12.4015 4.51102C14.0015 4.64002 15.2025 5.27002 16.0015 6.40602C14.5715 7.27302 13.8645 8.48602 13.8785 10.043C13.8905 11.256 14.3315 12.265 15.1955 13.066C15.5875 13.438 16.0245 13.725 16.5105 13.929C16.4045 14.236 16.2925 14.529 16.1745 14.811ZM12.5075 0.380024C12.5075 1.33002 12.1595 2.21802 11.4685 3.03902C10.6325 4.01502 9.62248 4.58002 8.52748 4.49102C8.51348 4.37702 8.50648 4.25702 8.50648 4.13102C8.50648 3.21802 8.90248 2.24202 9.60948 1.44302C9.96148 1.03902 10.4095 0.702024 10.9525 0.434023C11.4945 0.170024 12.0065 0.0240234 12.4885 -0.000976562C12.5015 0.127023 12.5075 0.254024 12.5075 0.380024Z" fill="#B8C2CC"></path></svg>