<svg width="40" height="40" viewBox="0 0 40 40" fill="none" xmlns="http://www.w3.org/2000/svg">
<path fill-rule="evenodd" clip-rule="evenodd" d="M20.7335 10.5174C21.4943 9.56813 22.7879 8.84067 23.8985 8.76294C24.0873 10.0624 23.5711 11.328 22.8876 12.2219C22.1825 13.1602 20.9718 13.8931 19.7893 13.8931H19.7006C19.4788 12.655 20.0449 11.3779 20.7335 10.5174ZM21.9611 14.273C22.5951 14.0253 23.2919 13.7531 24.3088 13.7531C25.7189 13.7531 27.2127 14.5469 28.2789 15.9181C24.7925 17.8893 25.3586 23.0309 28.8843 24.4076C28.401 25.5183 28.1678 26.0125 27.5405 26.9951C26.669 28.3613 25.4418 30.0659 23.915 30.0824H23.8872C23.2773 30.0824 22.872 29.8908 22.4354 29.6845C21.9261 29.4438 21.3744 29.183 20.4058 29.183H20.3779C19.3947 29.1889 18.8265 29.4506 18.3045 29.691C17.8567 29.8973 17.4429 30.0879 16.8302 30.0879H16.8023C15.2756 30.0714 14.1092 28.5333 13.2377 27.162C10.8001 23.3308 10.5446 18.8339 12.0493 16.4462C13.1211 14.753 14.8088 13.759 16.3912 13.759C17.2378 13.759 17.9199 14.009 18.5692 14.247C19.1588 14.4632 19.7214 14.6694 20.3555 14.6694C20.9466 14.6694 21.432 14.4797 21.9611 14.273Z" fill="#0A3390"/>
<path d="M31 35L35 35L35 31" stroke="#0A3390" stroke-width="2"/>
<path d="M8.99854 35L4.99854 35L4.99853 31" stroke="#0A3390" stroke-width="2"/>
<path d="M9 5L5 5L5 9" stroke="#0A3390" stroke-width="2"/>
<path d="M31 5L35 5L35 9" stroke="#0A3390" stroke-width="2"/>
</svg>
