<svg width="40" height="40" viewBox="0 0 40 40" fill="none" xmlns="http://www.w3.org/2000/svg">
<path d="M8.99805 4.99365L4.99805 4.99365L4.99805 8.99365" stroke="#0A3390" stroke-width="2"/>
<path d="M31 4.99365L35 4.99365L35 8.99365" stroke="#0A3390" stroke-width="2"/>
<path d="M8.99805 35L4.99805 35L4.99805 31" stroke="#0A3390" stroke-width="2"/>
<path d="M31 35L35 35L35 31" stroke="#0A3390" stroke-width="2"/>
<mask id="path-5-inside-1_434_9968" fill="white">
<rect x="8" y="8" width="24" height="24" rx="1"/>
</mask>
<rect x="8" y="8" width="24" height="24" rx="1" stroke="#0A3390" stroke-width="4" mask="url(#path-5-inside-1_434_9968)"/>
<path d="M20 8.24146V31.9199" stroke="#0A3390" stroke-width="2"/>
<path d="M31.8398 20L8.16138 20" stroke="#0A3390" stroke-width="2"/>
<path d="M22.9923 25.1426L25.0931 27.2434L28.5504 23.7862" stroke="#0A3390" stroke-width="2" stroke-linejoin="round"/>
<path d="M12.006 25.1426L14.1067 27.2434L17.5641 23.7862" stroke="#0A3390" stroke-width="2" stroke-linejoin="round"/>
<path d="M22.9923 14.0288L25.0931 16.1296L28.5504 12.6724" stroke="#0A3390" stroke-width="2" stroke-linejoin="round"/>
<path d="M12.006 14.0288L14.1067 16.1296L17.5641 12.6724" stroke="#0A3390" stroke-width="2" stroke-linejoin="round"/>
</svg>
