<svg width="40" height="40" viewBox="0 0 40 40" fill="none" xmlns="http://www.w3.org/2000/svg">
<rect x="5" y="29" width="6.0011" height="6" stroke="#0A3390" stroke-width="2" stroke-linejoin="round"/>
<rect x="17" y="29" width="6.0011" height="6" stroke="#0A3390" stroke-width="2" stroke-linejoin="round"/>
<path d="M22.8289 22.2406L20.0005 25.069L17.1716 22.24" stroke="#0A3390" stroke-width="2" stroke-linecap="square" stroke-linejoin="round"/>
<path d="M34.8289 22.2406L32.0005 25.069L29.1716 22.24" stroke="#0A3390" stroke-width="2" stroke-linecap="square" stroke-linejoin="round"/>
<path d="M10.8289 22.2406L8.00052 25.069L5.17157 22.24" stroke="#0A3390" stroke-width="2" stroke-linecap="square" stroke-linejoin="round"/>
<rect x="29" y="29" width="6.0011" height="6" stroke="#0A3390" stroke-width="2" stroke-linejoin="round"/>
<path d="M8 15L8 5" stroke="#0A3390" stroke-width="2" stroke-miterlimit="10" stroke-linecap="round"/>
<path d="M12 6L12 5" stroke="#0A3390" stroke-width="2" stroke-miterlimit="10" stroke-linecap="round"/>
<path d="M12 15L12 10" stroke="#0A3390" stroke-width="2" stroke-miterlimit="10" stroke-linecap="round"/>
<path d="M16 15L16 5" stroke="#0A3390" stroke-width="2" stroke-miterlimit="10" stroke-linecap="round"/>
<path d="M20 15L20 5" stroke="#0A3390" stroke-width="2" stroke-miterlimit="10" stroke-linecap="round"/>
<path d="M28 15L28 10" stroke="#0A3390" stroke-width="2" stroke-miterlimit="10" stroke-linecap="round"/>
<path d="M28 7L28 5" stroke="#0A3390" stroke-width="2" stroke-miterlimit="10" stroke-linecap="round"/>
<path d="M24 11L24 5" stroke="#0A3390" stroke-width="2" stroke-miterlimit="10" stroke-linecap="round"/>
<path d="M24 15L24 14" stroke="#0A3390" stroke-width="2" stroke-miterlimit="10" stroke-linecap="round"/>
<path d="M20 23.0913L20 19.0029" stroke="#0A3390" stroke-width="2" stroke-miterlimit="10" stroke-linecap="square"/>
<path d="M8 23.0913L8 19.0029" stroke="#0A3390" stroke-width="2" stroke-miterlimit="10" stroke-linecap="square"/>
<path d="M32 23.0913L32 19.0029" stroke="#0A3390" stroke-width="2" stroke-miterlimit="10" stroke-linecap="square"/>
<path d="M32 15L32 5" stroke="#0A3390" stroke-width="2" stroke-miterlimit="10" stroke-linecap="round"/>
</svg>
