<svg width="14" height="16" viewBox="0 0 14 16" fill="none" xmlns="http://www.w3.org/2000/svg">
<path d="M13.326 12.0801C12.98 12.8461 12.815 13.1881 12.369 13.8651C11.748 14.8101 10.873 15.9881 9.78804 15.9981C8.82404 16.0071 8.57604 15.3711 7.26804 15.3781C5.96004 15.3851 5.68604 16.0091 4.72204 16.0001C3.63704 15.9901 2.80804 14.9271 2.18604 13.9811C0.45004 11.3371 0.26804 8.23505 1.33904 6.58605C2.10004 5.41305 3.30104 4.72805 4.43104 4.72805C5.58104 4.72805 6.30304 5.35805 7.25404 5.35805C8.17604 5.35805 8.73804 4.72705 10.068 4.72705C11.073 4.72705 12.138 5.27405 12.896 6.21905C10.411 7.58205 10.815 11.1311 13.326 12.0801Z" fill="#121619"/>
<path d="M9.60408 2.699C10.1501 1.999 10.5641 1.01 10.4131 0C9.52208 0.061 8.48008 0.628 7.87108 1.367C7.31908 2.038 6.86308 3.033 7.04008 4C8.01308 4.03 9.01908 3.449 9.60408 2.699Z" fill="#121619"/>
</svg>
