<svg width="24" height="24" viewBox="0 0 24 24" fill="none" xmlns="http://www.w3.org/2000/svg">
<rect opacity="0.01" width="24" height="24" fill="white"/>
<path fill-rule="evenodd" clip-rule="evenodd" d="M15.9545 19.3333H18.5455L20 9.84127L16.3636 4H7.63636L4 9.84127L5.45455 19.3333H8.04545L7.86364 17.1429H9.13636L9.31818 19.3333H14.6818L14.8636 17.1429H16.1364L15.9545 19.3333ZM13.2987 6.92063H15.6364L17.0909 9.84127L16.3636 15.6825H7.63636L6.90909 9.84127L8.36364 6.92063H10.7013L10.5455 8.01587H13.4545L13.2987 6.92063ZM14.3636 13.744C14.1628 13.744 14 13.1359 14 12.3859C14 11.6358 14.1628 11.0278 14.3636 11.0278C14.5645 11.0278 14.7273 11.6358 14.7273 12.3859C14.7273 13.1359 14.5645 13.744 14.3636 13.744ZM9.40909 12.499C9.40909 13.2491 9.57191 13.8571 9.77273 13.8571C9.97355 13.8571 10.1364 13.2491 10.1364 12.499C10.1364 11.749 9.97355 11.141 9.77273 11.141C9.57191 11.141 9.40909 11.749 9.40909 12.499Z" fill="#121619"/>
</svg>
