<svg width="24" height="24" viewBox="0 0 24 24" fill="none" xmlns="http://www.w3.org/2000/svg">
<rect opacity="0.01" width="24" height="24" fill="#121619"/>
<path d="M5 12C4.448 12 4 12.448 4 13V18C4 18.552 4.448 19 5 19C5.552 19 6 18.552 6 18V13C6 12.448 5.552 12 5 12Z" fill="#121619"/>
<path d="M19 12C18.448 12 18 12.448 18 13V18C18 18.552 18.448 19 19 19C19.552 19 20 18.552 20 18V13C20 12.448 19.552 12 19 12Z" fill="#121619"/>
<rect x="7" y="12" width="10" height="8" fill="#121619"/>
<path d="M7 11.0002H17C17 9.44517 16.276 8.07417 15.163 7.15717L16.416 5.27717C16.569 5.04817 16.507 4.73717 16.277 4.58417C16.046 4.43117 15.736 4.49217 15.584 4.72317L14.331 6.60217C13.632 6.23017 12.847 6.00017 12 6.00017C11.153 6.00017 10.368 6.23017 9.669 6.60217L8.416 4.72317C8.263 4.49317 7.953 4.43117 7.723 4.58417C7.493 4.73717 7.431 5.04817 7.584 5.27717L8.837 7.15717C7.724 8.07417 7 9.44517 7 11.0002Z" fill="#121619"/>
</svg>
