<svg width="24" height="24" viewBox="0 0 24 24" fill="none" xmlns="http://www.w3.org/2000/svg">
<rect opacity="0.01" width="24" height="24" fill="#121619"/>
<path fill-rule="evenodd" clip-rule="evenodd" d="M16.6243 9.42602C18.6536 10.0472 19.9772 11.0488 19.9772 12.1057C19.9772 13.1593 18.6601 14.161 16.6438 14.7821C17.1154 16.8439 16.9105 18.4862 15.9967 19.013C15.7821 19.1366 15.5349 19.1951 15.2617 19.1951C14.3674 19.1951 13.1967 18.5642 12.0129 17.465C10.8292 18.5707 9.65848 19.2081 8.76417 19.2081C8.491 19.2081 8.24384 19.1496 8.03246 19.026C7.11539 18.4992 6.90726 16.8537 7.37555 14.7854C5.34628 14.1642 4.02271 13.1626 4.02271 12.1057C4.02271 11.052 5.33978 10.0537 7.36254 9.42927C6.891 7.36748 7.09588 5.7252 8.0097 5.19837C8.22433 5.0748 8.47149 5.01626 8.74466 5.01626V5.01301C9.63897 5.01301 10.8097 5.6439 11.9934 6.74309C13.1772 5.6374 14.3479 5 15.2422 5V5.00325C15.5109 5.00372 15.7569 5.06229 15.9674 5.18537C16.8845 5.7122 17.0926 7.35772 16.6243 9.42602ZM15.239 5.72521C14.5626 5.72693 13.569 6.26662 12.5105 7.25041C12.969 7.72846 13.4243 8.2748 13.8634 8.87642C14.5951 8.95447 15.291 9.0748 15.9284 9.23089C15.9999 8.90244 16.0585 8.58049 16.0942 8.2748C16.2438 7.03252 16.052 6.06667 15.6097 5.81301C15.5089 5.75772 15.3886 5.72846 15.239 5.72846V5.72521ZM11.4764 7.25366C10.4162 6.2748 9.41783 5.73821 8.74466 5.73821V5.74146C8.59506 5.74146 8.46823 5.76748 8.37067 5.82602C7.93165 6.08293 7.74303 7.04878 7.89588 8.29106C7.9349 8.5935 7.99018 8.90894 8.06498 9.23415C8.70238 9.0748 9.39831 8.95447 10.1333 8.87642C10.5658 8.2748 11.0211 7.73171 11.4764 7.25366ZM15.304 11.2211C15.4731 10.7886 15.6227 10.3561 15.743 9.93659C15.317 9.83252 14.8715 9.74797 14.4097 9.67967C14.569 9.92683 14.7284 10.1805 14.878 10.4406C15.0308 10.7008 15.1707 10.961 15.304 11.2211ZM14.2536 13.4C13.9999 13.839 13.7398 14.2553 13.4699 14.6423C12.9853 14.6846 12.4942 14.7073 11.9999 14.7073C11.5089 14.7073 11.0178 14.6846 10.5365 14.6455C10.2666 14.2585 10.0032 13.8455 9.74953 13.4098C9.50238 12.9837 9.27799 12.5512 9.07311 12.1154C9.27474 11.6797 9.50238 11.2439 9.74628 10.8179C9.99994 10.3789 10.2601 9.9626 10.53 9.57561C11.0146 9.53333 11.5056 9.51057 11.9999 9.51057C12.491 9.51057 12.9821 9.53333 13.4634 9.57236C13.7333 9.95935 13.9967 10.3724 14.2503 10.8081C14.4975 11.2341 14.7219 11.6667 14.9268 12.1024C14.7219 12.5382 14.4975 12.974 14.2536 13.4ZM15.7528 14.2715C15.6292 13.8488 15.4796 13.413 15.304 12.9772C15.1707 13.2374 15.0308 13.5008 14.8812 13.761C14.7316 14.0244 14.5723 14.2813 14.4129 14.5317C14.878 14.4634 15.3268 14.3756 15.7528 14.2715ZM12.0064 16.4472C11.704 16.135 11.4016 15.787 11.1024 15.4065C11.3951 15.4195 11.6942 15.4293 11.9967 15.4293C12.3024 15.4293 12.6048 15.4228 12.9008 15.4065C12.6081 15.787 12.3056 16.135 12.0064 16.4472ZM8.2536 14.2748C8.67962 14.3789 9.12514 14.4634 9.58693 14.5317C9.42758 14.2846 9.27149 14.0309 9.11864 13.7707C8.96579 13.5106 8.82596 13.2504 8.69262 12.9902C8.52352 13.4228 8.37392 13.8553 8.2536 14.2748ZM11.9902 7.76423C12.2926 8.07642 12.5951 8.42439 12.8942 8.80488C12.6016 8.79187 12.3024 8.78211 11.9999 8.78211C11.6942 8.78211 11.3918 8.78862 11.0959 8.80488C11.3886 8.42439 11.691 8.07642 11.9902 7.76423ZM9.11539 10.4504C9.26498 10.187 9.42433 9.93008 9.58368 9.67967C9.11864 9.74797 8.66986 9.83577 8.24384 9.93659C8.36742 10.3593 8.51701 10.7951 8.69262 11.2309C8.82596 10.9707 8.96579 10.7106 9.11539 10.4504ZM6.64059 13.7512C5.48937 13.2602 4.74466 12.6163 4.74466 12.1057C4.74466 11.5951 5.48937 10.948 6.64059 10.4602C6.92027 10.3398 7.22596 10.2325 7.5414 10.1317C7.72677 10.7691 7.97067 11.4325 8.27311 12.1122C7.97392 12.7886 7.73327 13.4488 7.55116 14.0829C7.22921 13.9821 6.92352 13.8715 6.64059 13.7512ZM7.90563 15.9366C7.75604 17.1789 7.94791 18.1447 8.39018 18.3984C8.48775 18.4537 8.61132 18.4829 8.75766 18.4862C9.43409 18.4862 10.4292 17.9463 11.4894 16.961C11.0308 16.4829 10.5756 15.9366 10.1365 15.335C9.40482 15.2569 8.70888 15.1366 8.07149 14.9805C7.99994 15.3089 7.9414 15.6309 7.90563 15.9366ZM16.104 15.9203C16.2569 17.1626 16.0682 18.1285 15.6292 18.3854C15.5316 18.4439 15.4048 18.4699 15.2552 18.4699C14.5821 18.4699 13.5837 17.9333 12.5235 16.9545C12.9788 16.4764 13.4341 15.9333 13.8666 15.3317C14.6016 15.2537 15.2975 15.1333 15.9349 14.974C16.0097 15.3024 16.0682 15.6179 16.104 15.9203ZM16.4552 14.0797C16.7707 13.9789 17.0764 13.8715 17.356 13.7512C18.5073 13.2634 19.252 12.6163 19.2552 12.1057C19.2552 11.5951 18.5105 10.9512 17.3593 10.4602C17.0731 10.3398 16.7674 10.2293 16.4455 10.1285C16.2634 10.7626 16.0227 11.4228 15.7235 12.0992C16.026 12.7789 16.2699 13.4423 16.4552 14.0797Z" fill="#121619"/>
<circle cx="11.9967" cy="12.1058" r="1.48618" fill="#121619"/>
</svg>
