<svg width="24" height="24" viewBox="0 0 24 24" fill="none" xmlns="http://www.w3.org/2000/svg">
<rect opacity="0.01" width="24" height="24" fill="#121619"/>
<path fill-rule="evenodd" clip-rule="evenodd" d="M7.54398 5.61011C7.76152 5.24212 8.18452 5.0009 8.61664 5H15.3834C15.8155 5.00083 16.2385 5.24212 16.456 5.61011L19.8394 11.3899C20.0535 11.7589 20.0535 12.2411 19.8394 12.6101L16.456 18.3899C16.2385 18.7579 15.8155 18.9991 15.3834 19H8.61664C8.18452 18.9992 7.76154 18.7579 7.54398 18.3899L4.16061 12.6101C3.94646 12.2411 3.94646 11.7589 4.16061 11.3899L7.54398 5.61011ZM9.87358 8.38124H8.70642C8.6971 8.38034 8.68735 8.38034 8.67805 8.38124C8.58432 8.39876 8.5278 8.51804 8.57413 8.60013L10.5068 12L8.57413 15.3952C8.52111 15.4857 8.60039 15.6197 8.70642 15.6188H9.87358C9.92615 15.6167 9.97654 15.5854 10.0012 15.5396L11.9811 12.0699C11.9911 12.0527 11.9975 12.0336 11.9999 12.014C12.0024 12.0336 12.0088 12.0527 12.0188 12.0699L13.994 15.5396C14.0193 15.5867 14.0721 15.6183 14.1263 15.6188H15.2934C15.3994 15.6197 15.4787 15.4857 15.4257 15.3952L13.4931 12L15.4257 8.60013C15.4742 8.51015 15.3968 8.38214 15.2934 8.38124H14.1263C14.073 8.38079 14.0206 8.41031 13.994 8.45575L12.0188 11.9255C12.0088 11.9426 12.0024 11.9617 11.9999 11.9814C11.9975 11.9618 11.9911 11.9426 11.9811 11.9255L10.0012 8.45575C9.97536 8.41165 9.92525 8.38229 9.87358 8.38124Z" fill="#121619"/>
</svg>
