<svg width="40" height="40" viewBox="0 0 40 40" fill="none" xmlns="http://www.w3.org/2000/svg">
<path d="M8.99805 4.99365L4.99805 4.99365L4.99805 8.99365" stroke="#0A3390" stroke-width="2"/>
<path d="M31 4.99365L35 4.99365L35 8.99365" stroke="#0A3390" stroke-width="2"/>
<path d="M8.99805 35L4.99805 35L4.99805 31" stroke="#0A3390" stroke-width="2"/>
<path d="M31 35L35 35L35 31" stroke="#0A3390" stroke-width="2"/>
<path d="M8.99805 8.99365L8.99805 18.9917" stroke="#0A3390" stroke-width="2" stroke-linecap="round"/>
<path d="M12.998 8.99365L12.998 18.9937" stroke="#0A3390" stroke-width="2" stroke-linecap="round"/>
<path d="M17 8.99365L17 18.9937" stroke="#0A3390" stroke-width="2" stroke-linecap="round"/>
<path d="M21 8.99365L21 13.6618" stroke="#0A3390" stroke-width="2" stroke-linecap="round"/>
<path d="M24.9922 8.99365L24.9922 9.99365" stroke="#0A3390" stroke-width="2" stroke-linecap="round"/>
<path d="M29.0449 8.99365L29.0449 9.99365" stroke="#0A3390" stroke-width="2" stroke-linecap="round"/>
<path d="M13 26.0068L13 28.0068" stroke="#0A3390" stroke-width="2"/>
<rect x="8.99805" y="23.0068" width="8.00146" height="8" stroke="#0A3390" stroke-width="2" stroke-linejoin="round"/>
<path d="M30.1368 14H23.6254L21 22.9693H24.9878L22.4788 32.0136L31.9062 21.0203H28.0007L30.1368 14Z" stroke="#0A3390" stroke-width="2" stroke-linejoin="round"/>
</svg>
