<svg width="40" height="40" viewBox="0 0 40 40" fill="none" xmlns="http://www.w3.org/2000/svg">
<path d="M8.99805 4.99365L4.99805 4.99365L4.99805 8.99365" stroke="#0A3390" stroke-width="2"/>
<path d="M31 4.99365L35 4.99365L35 8.99365" stroke="#0A3390" stroke-width="2"/>
<path d="M8.99805 35L4.99805 35L4.99805 31" stroke="#0A3390" stroke-width="2"/>
<path d="M31 35L35 35L35 31" stroke="#0A3390" stroke-width="2"/>
<path d="M7.66406 23.0781C7.37109 23.0781 7.16797 22.875 7.16797 22.5703V18.3398H7.14844L6.23828 18.9727C6.14062 19.043 6.0625 19.0703 5.95312 19.0703C5.74219 19.0703 5.58984 18.918 5.58984 18.6953C5.58984 18.5391 5.65234 18.4219 5.82031 18.3047L6.97266 17.4961C7.22266 17.3203 7.37891 17.2852 7.58984 17.2852C7.94531 17.2852 8.16016 17.5 8.16016 17.8477V22.5703C8.16016 22.875 7.95703 23.0781 7.66406 23.0781ZM9.94922 23C9.63672 23 9.47266 22.8281 9.47266 22.5742C9.47266 22.3789 9.53906 22.2617 9.75391 22.0586L11.4766 20.3516C12.1953 19.6406 12.375 19.3555 12.375 18.9258C12.375 18.4219 11.9883 18.0586 11.4453 18.0586C10.9375 18.0586 10.582 18.3164 10.3828 18.8242C10.2812 19.0273 10.1641 19.1328 9.93359 19.1328C9.66016 19.1328 9.49609 18.9648 9.49609 18.7148C9.49609 18.6406 9.50781 18.5703 9.52734 18.5039C9.67969 17.8945 10.3555 17.25 11.4531 17.25C12.582 17.25 13.3594 17.918 13.3594 18.8633C13.3594 19.5234 13.043 19.9688 12.1094 20.8828L10.8164 22.1562V22.1758H13.0664C13.332 22.1758 13.4961 22.3398 13.4961 22.5898C13.4961 22.8359 13.332 23 13.0664 23H9.94922ZM16.2266 23.1133C15.2383 23.1133 14.5977 22.7109 14.3047 22.1445C14.2305 22.0078 14.1992 21.8789 14.1992 21.7461C14.1992 21.4805 14.3672 21.3125 14.6484 21.3125C14.8555 21.3125 14.9805 21.4023 15.0859 21.6094C15.2812 22.0352 15.6211 22.2891 16.2383 22.2891C16.8789 22.2891 17.3125 21.9219 17.3125 21.4102C17.3164 20.8086 16.8789 20.4727 16.1562 20.4727H15.8359C15.5859 20.4727 15.4375 20.3203 15.4375 20.0977C15.4375 19.875 15.5859 19.7227 15.8359 19.7227H16.1328C16.7539 19.7227 17.168 19.3672 17.168 18.8672C17.168 18.3789 16.8477 18.0508 16.2227 18.0508C15.6914 18.0508 15.3828 18.2695 15.1953 18.7109C15.0859 18.9531 14.9766 19.043 14.7422 19.043C14.4609 19.043 14.3125 18.8789 14.3125 18.6211C14.3125 18.4805 14.3398 18.3555 14.4102 18.2188C14.6758 17.6602 15.3008 17.25 16.2188 17.25C17.3867 17.25 18.1367 17.8594 18.1367 18.7305C18.1367 19.4375 17.6328 19.9102 16.9531 20.0508V20.0703C17.7852 20.1484 18.3359 20.6484 18.3359 21.4336C18.3359 22.4336 17.4609 23.1133 16.2266 23.1133ZM19.418 23.0664C19.1094 23.0664 18.9102 22.8867 18.9102 22.6016C18.9102 22.5234 18.9297 22.4141 18.9766 22.293L20.6133 17.8438C20.75 17.4688 20.9766 17.2969 21.3438 17.2969C21.7148 17.2969 21.9414 17.4609 22.082 17.8398L23.7227 22.293C23.7695 22.4219 23.7891 22.5117 23.7891 22.6016C23.7891 22.875 23.5781 23.0664 23.2852 23.0664C23.0117 23.0664 22.8594 22.9414 22.7695 22.6406L22.3984 21.5625H20.293L19.9219 22.6328C19.8281 22.9375 19.6797 23.0664 19.418 23.0664ZM20.5312 20.7656H22.1523L21.3516 18.3594H21.3242L20.5312 20.7656ZM25.0273 23C24.7148 23 24.5234 22.8047 24.5234 22.4766V17.8867C24.5234 17.5586 24.7148 17.3633 25.0273 17.3633H26.8633C27.8867 17.3633 28.5469 17.9141 28.5469 18.7695C28.5469 19.375 28.0977 19.9023 27.5195 19.9961V20.0273C28.2852 20.1016 28.8203 20.6523 28.8203 21.3984C28.8203 22.3906 28.0898 23 26.8867 23H25.0273ZM25.5312 19.7383H26.4531C27.1562 19.7383 27.5508 19.4414 27.5508 18.918C27.5508 18.4258 27.2109 18.1484 26.6094 18.1484H25.5312V19.7383ZM25.5312 22.2148H26.6562C27.3984 22.2148 27.793 21.9062 27.793 21.3281C27.793 20.7539 27.3867 20.4531 26.6133 20.4531H25.5312V22.2148ZM31.9805 23.0938C30.3516 23.0938 29.3477 21.9883 29.3477 20.1797C29.3477 18.3828 30.3672 17.2695 31.9609 17.2695C33.0039 17.2695 33.8281 17.7578 34.1992 18.582C34.2617 18.7109 34.293 18.8438 34.293 18.9609C34.293 19.2305 34.1172 19.4023 33.8477 19.4023C33.6172 19.4023 33.4648 19.293 33.3555 19.0469C33.0938 18.4414 32.582 18.125 31.9688 18.125C31 18.125 30.3789 18.9219 30.3789 20.1797C30.3789 21.4453 30.9961 22.2383 31.9727 22.2383C32.6172 22.2383 33.1133 21.957 33.3711 21.3633C33.4727 21.1328 33.6016 21.0391 33.8203 21.0391C34.0977 21.0391 34.2891 21.2227 34.2891 21.4883C34.2891 21.6172 34.2578 21.7344 34.1953 21.8672C33.8359 22.6328 33.0352 23.0938 31.9805 23.0938Z" fill="#0A3390"/>
</svg>
