<svg width="40" height="40" viewBox="0 0 40 40" fill="none" xmlns="http://www.w3.org/2000/svg">
<path fill-rule="evenodd" clip-rule="evenodd" d="M13.9655 10.8716C14.2703 10.3459 14.8629 10.0013 15.4684 10H24.9492C25.5547 10.0012 26.1473 10.3459 26.4521 10.8716L31.1926 19.1284C31.4926 19.6555 31.4926 20.3445 31.1926 20.8716L26.4521 29.1284C26.1473 29.6541 25.5547 29.9987 24.9492 30H15.4684C14.8629 29.9988 14.2703 29.6541 13.9655 29.1284L9.22503 20.8716C8.92499 20.3445 8.92499 19.6555 9.22503 19.1284L13.9655 10.8716ZM22.3098 13.8872C21.7114 13.9291 21.0143 14.3211 20.6044 14.8326C20.2333 15.2963 19.9283 15.9845 20.0478 16.6517H20.0956C20.7328 16.6517 21.3852 16.2567 21.7651 15.7511C22.1334 15.2695 22.4116 14.5874 22.3098 13.8872ZM22.5305 16.5761C21.9825 16.5761 21.607 16.7228 21.2654 16.8562C20.9803 16.9676 20.7188 17.0698 20.4002 17.0698C20.0585 17.0698 19.7554 16.9587 19.4376 16.8422C19.0878 16.714 18.7202 16.5792 18.2641 16.5792C17.4113 16.5792 16.5019 17.1149 15.9244 18.0273C15.1135 19.3139 15.2513 21.7371 16.5647 23.8015C17.0344 24.5404 17.6629 25.3693 18.4856 25.3781H18.5006C18.8307 25.3781 19.0537 25.2754 19.295 25.1643C19.5763 25.0347 19.8825 24.8937 20.4123 24.8905H20.4273C20.9492 24.8905 21.2466 25.0311 21.521 25.1608C21.7562 25.272 21.9746 25.3752 22.3033 25.3752H22.3183C23.141 25.3663 23.8023 24.4478 24.2719 23.7116C24.6099 23.1821 24.7356 22.9158 24.996 22.3173C23.0961 21.5754 22.7911 18.8049 24.6698 17.7427C24.0952 17.0038 23.2903 16.5761 22.5305 16.5761Z" fill="#0A3390"/>
<path d="M8.99854 35L4.99854 35L4.99853 31" stroke="#0A3390" stroke-width="2"/>
<path d="M31 35L35 35L35 31" stroke="#0A3390" stroke-width="2"/>
<path d="M9 5L5 5L5 9" stroke="#0A3390" stroke-width="2"/>
<path d="M31 5L35 5L35 9" stroke="#0A3390" stroke-width="2"/>
</svg>
